HIERARCHY
ROOT joint_Root
{
	OFFSET 0.0 0.0 0.0
	CHANNELS 6 Xposition Yposition Zposition Zrotation Xrotation Yrotation 
	JOINT Hips
	{
		OFFSET 4.5925 91.4895 -427.239
		CHANNELS 6 Xposition Yposition Zposition Zrotation Xrotation Yrotation 
		JOINT Spine
		{
			OFFSET 15.7357 0.0 0.0
			CHANNELS 6 Xposition Yposition Zposition Zrotation Xrotation Yrotation 
			JOINT Chest
			{
				OFFSET 8.98455 -0.406207 0.0
				CHANNELS 6 Xposition Yposition Zposition Zrotation Xrotation Yrotation 
				JOINT Neck
				{
					OFFSET 16.3773 0.0 0.0
					CHANNELS 6 Xposition Yposition Zposition Zrotation Xrotation Yrotation 
					JOINT Head
					{
						OFFSET 6.45672 0.0 0.0
						CHANNELS 6 Xposition Yposition Zposition Zrotation Xrotation Yrotation 
						End Site
						{
							OFFSET 0.0 0.0 0.0
						}
					}
				}
				JOINT Shoulder_L
				{
					OFFSET 12.9942 -0.242716 4.98039
					CHANNELS 6 Xposition Yposition Zposition Zrotation Xrotation Yrotation 
					JOINT UpperArm_L
					{
						OFFSET 5.34809 0.0 0.0
						CHANNELS 6 Xposition Yposition Zposition Zrotation Xrotation Yrotation 
						JOINT LowerArm_L
						{
							OFFSET 24.3286 1.87007e-05 0.0
							CHANNELS 6 Xposition Yposition Zposition Zrotation Xrotation Yrotation 
							JOINT Hand_L
							{
								OFFSET 22.2916 0.0 0.0
								CHANNELS 6 Xposition Yposition Zposition Zrotation Xrotation Yrotation 
								End Site
								{
									OFFSET 0.0 0.0 0.0
								}
							}
						}
					}
				}
				JOINT Shoulder_R
				{
					OFFSET 12.9945 -0.242716 -4.98039
					CHANNELS 6 Xposition Yposition Zposition Zrotation Xrotation Yrotation 
					JOINT UpperArm_R
					{
						OFFSET -5.34813 0.0 0.0
						CHANNELS 6 Xposition Yposition Zposition Zrotation Xrotation Yrotation 
						JOINT LowerArm_R
						{
							OFFSET -24.3289 0.000322201 0.0
							CHANNELS 6 Xposition Yposition Zposition Zrotation Xrotation Yrotation 
							JOINT Hand_R
							{
								OFFSET -22.2915 -0.000108084 0.0
								CHANNELS 6 Xposition Yposition Zposition Zrotation Xrotation Yrotation 
								End Site
								{
									OFFSET 0.0 0.0 0.0
								}
							}
						}
					}
				}
			}
		}
		JOINT UpperLeg_L
		{
			OFFSET -2.19248 -6.46944 0.0
			CHANNELS 6 Xposition Yposition Zposition Zrotation Xrotation Yrotation 
			JOINT LowerLeg_L
			{
				OFFSET 39.0811 0.0 -1.23785e-05
				CHANNELS 6 Xposition Yposition Zposition Zrotation Xrotation Yrotation 
				JOINT Foot_L
				{
					OFFSET 40.9854 0.0 -1.26872e-05
					CHANNELS 6 Xposition Yposition Zposition Zrotation Xrotation Yrotation 
					JOINT Toes_L
					{
						OFFSET 11.7543 0.0 0.0
						CHANNELS 6 Xposition Yposition Zposition Zrotation Xrotation Yrotation 
						End Site
						{
							OFFSET 0.0 0.0 0.0
						}
					}
				}
			}
		}
		JOINT UpperLeg_R
		{
			OFFSET -2.19251 6.46944 0.0
			CHANNELS 6 Xposition Yposition Zposition Zrotation Xrotation Yrotation 
			JOINT LowerLeg_R
			{
				OFFSET -39.0811 -0.00228153 -0.0401928
				CHANNELS 6 Xposition Yposition Zposition Zrotation Xrotation Yrotation 
				JOINT Foot_R
				{
					OFFSET -40.9854 0.0 0.0
					CHANNELS 6 Xposition Yposition Zposition Zrotation Xrotation Yrotation 
					JOINT Toes_R
					{
						OFFSET -11.7543 0.0 0.0
						CHANNELS 6 Xposition Yposition Zposition Zrotation Xrotation Yrotation 
						End Site
						{
							OFFSET 0.0 0.0 0.0
						}
					}
				}
			}
		}
	}
}
MOTION
Frames:	5
Frame Time:	0.0333333
0.000000 0.000000 0.000000 0.000000 0.000000 -0.000000 1.658420 91.676600 -2.087780 89.805400 -7.650980 4.739530 15.735700 0.000005 -0.000001 81.853400 85.549300 -77.851500 8.984550 -0.406207 -0.000000 1.110780 -1.492880 8.012220 16.377300 -0.000001 -0.000001 5.803070 -3.173730 -3.457570 6.456720 -0.000001 -0.000000 0.887181 -6.025040 1.902960 12.994200 -0.242716 4.980390 -82.146400 -14.703700 -61.478400 5.348090 -0.000007 -0.000001 -43.831700 -73.972800 -90.758300 24.328600 0.000019 0.000005 4.751500 5.723300 -39.810800 22.291600 -0.000001 0.000005 21.532400 5.389030 -2.584180 12.994500 -0.242716 -4.980390 87.966500 7.804280 -75.346200 -5.348130 -0.000001 -0.000004 -58.227600 17.425600 2.164350 -24.328900 0.000322 -0.000009 -1.480450 -2.458970 -31.045200 -22.291500 -0.000108 -0.000004 19.670900 5.428670 -3.893440 -2.192480 -6.469440 -0.000000 -178.101000 -14.681900 -4.174520 39.081100 -0.000007 -0.000012 -0.094304 0.189988 26.398500 40.985400 -0.000006 -0.000013 1.112740 2.038140 -67.632400 11.754300 -0.000000 0.000003 -0.000050 -0.000566 -16.599500 -2.192510 6.469440 -0.000001 174.199000 22.148200 175.128000 -39.081100 -0.002282 -0.040193 -0.138271 0.288055 26.174500 -40.985400 0.000008 0.000006 2.803310 20.700400 -66.373800 -11.754300 -0.000006 -0.000006 -0.002210 -0.031321 -17.846700
0.000000 0.000000 0.000000 0.000000 0.000000 -0.000000 1.630020 91.677500 -2.148780 89.851000 -7.511700 4.769300 15.735700 0.000005 -0.000001 81.784200 85.550500 -77.828300 8.984550 -0.406207 -0.000000 1.106090 -1.500640 7.920200 16.377300 -0.000001 -0.000001 5.823440 -3.265530 -3.417410 6.456720 -0.000001 -0.000000 0.944059 -6.044300 1.956070 12.994200 -0.242716 4.980390 -82.262100 -14.436500 -61.408500 5.348090 -0.000007 -0.000001 -43.770600 -73.632300 -90.247200 24.328600 0.000019 0.000005 4.626160 5.579700 -39.768100 22.291600 -0.000001 0.000005 21.524100 5.388240 -2.559040 12.994500 -0.242716 -4.980390 87.943500 7.838660 -75.249500 -5.348130 -0.000001 -0.000004 -58.322600 17.545000 1.901060 -24.328900 0.000322 -0.000009 -1.517620 -2.504280 -31.212100 -22.291500 -0.000108 -0.000004 19.684500 5.428270 -3.879730 -2.192480 -6.469440 -0.000000 -178.121000 -14.667300 -4.203690 39.081100 -0.000007 -0.000012 -0.094088 0.189570 26.396400 40.985400 -0.000006 -0.000013 1.121510 2.143490 -67.574900 11.754300 -0.000000 0.000003 -0.000054 -0.000605 -16.601000 -2.192510 6.469440 -0.000001 174.191000 22.043700 175.111000 -39.081100 -0.002282 -0.040193 -0.141232 0.293535 26.216600 -40.985400 0.000008 0.000006 2.783340 20.492300 -66.375100 -11.754300 -0.000006 -0.000006 -0.002286 -0.032244 -17.884300
0.000000 0.000000 0.000000 0.000000 0.000000 -0.000000 1.576010 91.680400 -2.205730 89.896200 -7.298480 4.778660 15.735700 0.000005 -0.000001 81.546600 85.540700 -77.652200 8.984550 -0.406207 -0.000000 1.120200 -1.536000 7.797900 16.377300 -0.000001 -0.000001 5.772360 -3.378010 -3.433290 6.456720 -0.000001 -0.000000 0.907407 -6.000360 2.021550 12.994200 -0.242716 4.980390 -82.513400 -13.834400 -61.207400 5.348090 -0.000007 -0.000001 -44.401900 -72.954500 -90.241500 24.328600 0.000019 0.000005 4.358240 5.127040 -40.459600 22.291600 -0.000001 0.000005 21.970300 5.383630 -2.412770 12.994500 -0.242716 -4.980390 87.896000 7.883880 -75.005700 -5.348130 -0.000001 -0.000004 -58.523100 17.545200 1.551870 -24.328900 0.000322 -0.000009 -1.596810 -2.639790 -31.168100 -22.291500 -0.000108 -0.000004 19.809600 5.429200 -3.911720 -2.192480 -6.469440 -0.000000 -178.117000 -14.681300 -4.240490 39.081100 -0.000007 -0.000012 -0.093062 0.187628 26.381200 40.985400 -0.000006 -0.000013 1.141870 2.373740 -67.513900 11.754300 -0.000000 0.000003 -0.000050 -0.000571 -16.599700 -2.192510 6.469440 -0.000001 174.200000 22.081100 175.083000 -39.081100 -0.002282 -0.040193 -0.141340 0.293214 26.258400 -40.985400 0.000008 0.000006 2.794900 20.306800 -66.384300 -11.754300 -0.000006 -0.000006 -0.002325 -0.032719 -17.903600
0.000000 0.000000 0.000000 0.000000 0.000000 -0.000000 1.481110 91.679300 -2.255870 89.917100 -7.009710 4.800260 15.735700 0.000005 -0.000001 81.505800 85.526100 -77.706700 8.984550 -0.406207 -0.000000 1.146450 -1.540210 7.607690 16.377300 -0.000001 -0.000001 5.781620 -3.508230 -3.448190 6.456720 -0.000001 -0.000000 0.711939 -6.121450 2.200810 12.994200 -0.242716 4.980390 -82.733600 -13.352200 -61.095500 5.348090 -0.000007 -0.000001 -43.774900 -72.049200 -87.753200 24.328600 0.000019 0.000005 3.848310 4.141760 -42.967500 22.291600 -0.000001 0.000005 22.518700 5.389320 -2.593930 12.994500 -0.242716 -4.980390 87.815400 8.003860 -74.679000 -5.348130 -0.000001 -0.000004 -58.845500 17.419700 1.282060 -24.328900 0.000322 -0.000009 -1.680310 -2.804590 -30.928400 -22.291500 -0.000108 -0.000004 19.826800 5.429730 -3.929810 -2.192480 -6.469440 -0.000000 -178.055000 -14.659200 -4.287520 39.081100 -0.000007 -0.000012 -0.093043 0.187349 26.410600 40.985400 -0.000006 -0.000013 1.145960 2.658950 -67.465700 11.754300 -0.000000 0.000003 -0.000053 -0.000595 -16.600600 -2.192510 6.469440 -0.000001 174.237000 22.157100 175.096000 -39.081100 -0.002282 -0.040193 -0.143041 0.296032 26.306700 -40.985400 0.000008 0.000006 2.828630 20.099800 -66.426000 -11.754300 -0.000006 -0.000006 -0.002355 -0.033070 -17.917800
0.000000 0.000000 0.000000 0.000000 0.000000 -0.000000 1.348720 91.679000 -2.310130 89.927400 -6.641740 4.833530 15.735700 0.000005 -0.000001 81.402200 85.517400 -77.714900 8.984550 -0.406207 -0.000000 1.159450 -1.551930 7.384610 16.377300 -0.000001 -0.000001 5.702220 -3.698380 -3.350190 6.456720 -0.000001 -0.000000 0.704999 -6.260260 2.223220 12.994200 -0.242716 4.980390 -82.969700 -12.982900 -61.236600 5.348090 -0.000007 -0.000001 -41.223300 -70.809500 -82.074000 24.328600 0.000019 0.000005 3.614020 3.352340 -47.208200 22.291600 -0.000001 0.000005 22.689600 5.398960 -2.903670 12.994500 -0.242716 -4.980390 87.764300 8.083300 -74.483300 -5.348130 -0.000001 -0.000004 -59.359500 17.302300 1.220250 -24.328900 0.000322 -0.000009 -1.772760 -3.010430 -30.496900 -22.291500 -0.000108 -0.000004 19.902800 5.430110 -3.942760 -2.192480 -6.469440 -0.000000 -177.991000 -14.392200 -4.343530 39.081100 -0.000007 -0.000012 -0.091736 0.184422 26.447000 40.985400 -0.000006 -0.000013 1.093220 2.802170 -67.403800 11.754300 -0.000000 0.000003 -0.000057 -0.000631 -16.602000 -2.192510 6.469440 -0.000001 174.292000 22.360700 175.145000 -39.081100 -0.002282 -0.040193 -0.143405 0.296210 26.349600 -40.985400 0.000008 0.000006 2.898830 19.911100 -66.485200 -11.754300 -0.000006 -0.000006 -0.002411 -0.033747 -17.945400
